<svg xmlns="http://www.w3.org/2000/svg" version="1.1" xmlns:xlink="http://www.w3.org/1999/xlink" xmlns:svgjs="http://svgjs.dev/svgjs"  viewBox="0 0 1500 1500"><rect  fill="#ffffff" fill-opacity="0"></rect><g transform="matrix(0.6666666666666666,0,0,0.6666666666666666,249.78425655976667,249.78425655976673)"><svg viewBox="0 0 343 343" data-background-color="#ffffff" preserveAspectRatio="xMidYMid meet" height="1500" width="1500" xmlns="http://www.w3.org/2000/svg" xmlns:xlink="http://www.w3.org/1999/xlink"><g id="tight-bounds" transform="matrix(1,0,0,1,0.0740000000000407,0.07400000000001228)"><svg viewBox="0 0 342.85155851775386 342.85155851775386" height="342.85155851775386" width="342.85155851775386"><g><svg></svg></g><g><svg viewBox="0 0 342.85155851775386 342.85155851775386" height="342.85155851775386" width="342.85155851775386"><g><path d="M0 171.426c0-94.676 76.75-171.426 171.426-171.426 94.676 0 171.426 76.75 171.426 171.426 0 94.676-76.75 171.426-171.426 171.426-94.676 0-171.426-76.75-171.426-171.426zM171.426 340.881c93.588 0 169.456-75.868 169.455-169.455 0-93.588-75.868-169.456-169.455-169.456-93.588 0-169.456 75.868-169.456 169.456 0 93.588 75.868 169.456 169.456 169.455z" data-fill-palette-color="tertiary" fill="#7e91c6" stroke="transparent"></path><ellipse rx="164.56874808852186" ry="164.56874808852186" cx="171.42577925887693" cy="171.42577925887693" fill="#7e91c6" stroke="transparent" stroke-width="0" fill-opacity="1" data-fill-palette-color="tertiary"></ellipse></g><g transform="matrix(1,0,0,1,64.84655864529837,142.8258647151253)"><svg viewBox="0 0 213.1584412271571 57.199829087503275" height="57.199829087503275" width="213.1584412271571"><g><svg viewBox="0 0 213.1584412271571 57.199829087503275" height="57.199829087503275" width="213.1584412271571"><g><svg viewBox="0 0 213.15844122715714 57.19982908750328" height="57.199829087503275" width="213.1584412271571"><g transform="matrix(1,0,0,1,0,35.35178911941096)"><svg viewBox="0 0 213.15844122715714 21.848039968092323" height="21.848039968092323" width="213.15844122715714"><g id="textblocktransform"><svg viewBox="0 0 213.15844122715714 21.848039968092323" height="21.848039968092323" width="213.15844122715714" id="textblock"><g><svg viewBox="0 0 213.15844122715714 21.848039968092323" height="21.848039968092323" width="213.15844122715714"><g transform="matrix(1,0,0,1,0,0)"><svg width="213.15844122715714" viewBox="1.7 -38.4 380.47 39" height="21.848039968092323" data-palette-color="#ffffff"><path d="M3.8-1.7L3.8-1.7Q1.7-3.05 1.7-5.15L1.7-5.15Q1.7-8.05 6.3-8.75L6.3-8.75Q7.1-4.1 9.7-2.3L9.7-2.3Q12-0.7 14.58-0.7 17.15-0.7 19.03-2.27 20.9-3.85 20.9-7.45L20.9-7.45Q20.9-10.15 18.98-11.73 17.05-13.3 14.1-14.5 11.15-15.7 10.1-16.18 9.05-16.65 7.43-17.6 5.8-18.55 5-19.4L5-19.4Q3-21.7 3-24.7L3-24.7Q3-29.4 6.5-31.8 10-34.2 16.25-34.2L16.25-34.2Q19.8-34.2 24.5-33.4L24.5-33.4 24.5-26 22.85-26 20.85-31.9Q18.35-32.7 15.78-32.7 13.2-32.7 11.3-31.08 9.4-29.45 9.4-26.25L9.4-26.25Q9.4-22.6 12.7-20.8L12.7-20.8Q14.35-19.95 16.6-19.1 18.85-18.25 19.85-17.82 20.85-17.4 22.5-16.48 24.15-15.55 24.95-14.65 25.75-13.75 26.4-12.28 27.05-10.8 27.05-9.05L27.05-9.05Q27.05-4.8 23.45-2.1 19.85 0.6 13.63 0.6 7.4 0.6 3.8-1.7ZM38.9-6.95L38.9-6.95Q38.9-4 39.62-2.65 40.35-1.3 42.55-1.3 44.75-1.3 46.9-4.05 49.05-6.8 49.05-8.8L49.05-8.8 49.05-22.8 45.1-23 45.1-24.15 55.45-24.8 55.45-1.6 59.5-1.4 59.5-0.25 49.25 0.35 49.5-4.65 49-4.65Q46.1 0.5 40.6 0.5L40.6 0.5Q32.6 0.5 32.6-7.2 32.6-14.9 33.15-22.8L33.15-22.8 29.45-23 29.45-24.15 39.4-24.7Q38.9-13.4 38.9-6.95ZM78.65-16.3L78.65-16.3Q78.9-17.3 78.9-18.57 78.9-19.85 78.15-21.2L78.15-21.2Q77.05-23.4 74.8-23.4L74.8-23.4Q68.8-23.4 68.8-12.13 68.8-0.85 74.95-0.85L74.95-0.85Q79.6-0.85 82.4-5.35L82.4-5.35Q83.5-5 83.5-4.28 83.5-3.55 82.57-2.48 81.65-1.4 79.37-0.43 77.1 0.55 74.15 0.55L74.15 0.55Q68.5 0.55 65.22-2.93 61.95-6.4 61.95-12.23 61.95-18.05 65.35-21.5 68.75-24.95 74.9-24.95L74.9-24.95Q76.8-24.95 78.65-24.48 80.5-24 82.15-22.45 83.8-20.9 83.8-18.73 83.8-16.55 81.85-15.9L81.85-15.9Q81.15-15.65 80.3-15.65 79.45-15.65 78.65-16.3ZM104.09-16.3L104.09-16.3Q104.34-17.3 104.34-18.57 104.34-19.85 103.59-21.2L103.59-21.2Q102.49-23.4 100.24-23.4L100.24-23.4Q94.24-23.4 94.24-12.13 94.24-0.85 100.39-0.85L100.39-0.85Q105.04-0.85 107.84-5.35L107.84-5.35Q108.94-5 108.94-4.28 108.94-3.55 108.02-2.48 107.09-1.4 104.82-0.43 102.54 0.55 99.59 0.55L99.59 0.55Q93.94 0.55 90.67-2.93 87.39-6.4 87.39-12.23 87.39-18.05 90.79-21.5 94.19-24.95 100.34-24.95L100.34-24.95Q102.24-24.95 104.09-24.48 105.94-24 107.59-22.45 109.24-20.9 109.24-18.73 109.24-16.55 107.29-15.9L107.29-15.9Q106.59-15.65 105.74-15.65 104.89-15.65 104.09-16.3ZM129.49-17.45L129.49-17.45Q129.49-23.55 125.24-23.55L125.24-23.55Q120.79-23.55 119.84-15.75L119.84-15.75 129.39-15.75Q129.49-16.75 129.49-17.45ZM124.79 0.55L124.79 0.55Q119.44 0.55 116.12-2.95 112.79-6.45 112.79-12.2 112.79-17.95 116.27-21.45 119.74-24.95 125.09-24.95 130.44-24.95 133.09-22.68 135.74-20.4 135.74-16.35L135.74-16.35Q135.74-15.2 135.54-13.95L135.54-13.95 119.69-13.95 119.69-12.2Q119.69-6.6 121.09-3.73 122.49-0.85 125.32-0.85 128.14-0.85 130.47-2.02 132.79-3.2 134.09-5.35L134.09-5.35Q135.19-5 135.19-4.3L135.19-4.3Q135.19-3.05 132.84-1.4L132.84-1.4Q131.69-0.6 129.57-0.03 127.44 0.55 124.79 0.55ZM148.89-0.7L148.89-0.7Q150.64-0.7 151.79-1.83 152.94-2.95 152.94-5.5L152.94-5.5Q152.94-7.55 151.24-8.6L151.24-8.6Q149.94-9.4 147.91-10.18 145.89-10.95 144.81-11.5 143.74-12.05 142.44-12.95L142.44-12.95Q139.89-14.75 139.89-17.85 139.89-20.95 142.46-22.95 145.04-24.95 149.99-24.95L149.99-24.95Q153.09-24.95 155.24-23.63 157.39-22.3 157.39-20.3 157.39-18.3 155.69-17.4L155.69-17.4Q154.89-17 154.09-17L154.09-17 152.29-17.55Q152.59-19.1 152.59-20.38 152.59-21.65 151.79-22.68 150.99-23.7 149.39-23.7L149.39-23.7Q145.49-23.7 145.49-19L145.49-19Q145.49-16.85 147.14-15.8L147.14-15.8Q148.39-14.95 150.34-14.28 152.29-13.6 153.41-13.1 154.54-12.6 155.84-11.7L155.84-11.7Q158.44-10 158.44-6.68 158.44-3.35 155.69-1.4 152.94 0.55 148.44 0.55L148.44 0.55Q143.44 0.55 141.04-1.1L141.04-1.1Q139.64-2.1 139.64-3.55 139.64-5 140.61-5.9 141.59-6.8 143.34-6.85L143.34-6.85Q143.69-0.7 148.89-0.7ZM171.49-0.7L171.49-0.7Q173.24-0.7 174.39-1.83 175.54-2.95 175.54-5.5L175.54-5.5Q175.54-7.55 173.84-8.6L173.84-8.6Q172.54-9.4 170.51-10.18 168.49-10.95 167.41-11.5 166.34-12.05 165.04-12.95L165.04-12.95Q162.49-14.75 162.49-17.85 162.49-20.95 165.06-22.95 167.64-24.95 172.59-24.95L172.59-24.95Q175.69-24.95 177.84-23.63 179.99-22.3 179.99-20.3 179.99-18.3 178.29-17.4L178.29-17.4Q177.49-17 176.69-17L176.69-17 174.89-17.55Q175.19-19.1 175.19-20.38 175.19-21.65 174.39-22.68 173.59-23.7 171.99-23.7L171.99-23.7Q168.09-23.7 168.09-19L168.09-19Q168.09-16.85 169.74-15.8L169.74-15.8Q170.99-14.95 172.94-14.28 174.89-13.6 176.01-13.1 177.14-12.6 178.44-11.7L178.44-11.7Q181.04-10 181.04-6.68 181.04-3.35 178.29-1.4 175.54 0.55 171.04 0.55L171.04 0.55Q166.04 0.55 163.64-1.1L163.64-1.1Q162.24-2.1 162.24-3.55 162.24-5 163.21-5.9 164.19-6.8 165.94-6.85L165.94-6.85Q166.29-0.7 171.49-0.7ZM213.63-16.3L213.63-16.3Q213.88-17.3 213.88-18.57 213.88-19.85 213.13-21.2L213.13-21.2Q212.03-23.4 209.78-23.4L209.78-23.4Q203.78-23.4 203.78-12.13 203.78-0.85 209.93-0.85L209.93-0.85Q214.58-0.85 217.38-5.35L217.38-5.35Q218.48-5 218.48-4.28 218.48-3.55 217.56-2.48 216.63-1.4 214.36-0.43 212.08 0.55 209.13 0.55L209.13 0.55Q203.48 0.55 200.21-2.93 196.93-6.4 196.93-12.23 196.93-18.05 200.33-21.5 203.73-24.95 209.88-24.95L209.88-24.95Q211.78-24.95 213.63-24.48 215.48-24 217.13-22.45 218.78-20.9 218.78-18.73 218.78-16.55 216.83-15.9L216.83-15.9Q216.13-15.65 215.28-15.65 214.43-15.65 213.63-16.3ZM238.58-1.15L240.98-1.45 241.28-17.3Q241.28-20.25 240.53-21.6 239.78-22.95 237.53-22.95 235.28-22.95 233.1-20.2 230.93-17.45 230.93-15.45L230.93-15.45 230.93-1.45 234.68-1.15 234.68 0 221.28 0 221.28-1.15 224.58-1.45 224.58-35.9 220.28-36.05 220.28-37.25 230.98-38.4 230.98-27.2Q230.98-21.55 230.68-19.55L230.68-19.55 230.98-19.55Q232.33-22.05 234.63-23.4 236.93-24.75 239.58-24.75L239.58-24.75Q247.58-24.75 247.58-17.05L247.58-17.05Q247.58-11.5 247.23-1.45L247.23-1.45 250.68-1.15 250.68 0 238.58 0 238.58-1.15ZM270.22-17.45L270.22-17.45Q270.22-23.55 265.97-23.55L265.97-23.55Q261.52-23.55 260.57-15.75L260.57-15.75 270.13-15.75Q270.22-16.75 270.22-17.45ZM265.52 0.55L265.52 0.55Q260.18 0.55 256.85-2.95 253.52-6.45 253.52-12.2 253.52-17.95 257-21.45 260.47-24.95 265.82-24.95 271.18-24.95 273.82-22.68 276.47-20.4 276.47-16.35L276.47-16.35Q276.47-15.2 276.27-13.95L276.27-13.95 260.43-13.95 260.43-12.2Q260.43-6.6 261.82-3.73 263.22-0.85 266.05-0.85 268.88-0.85 271.2-2.02 273.52-3.2 274.82-5.35L274.82-5.35Q275.93-5 275.93-4.3L275.93-4.3Q275.93-3.05 273.57-1.4L273.57-1.4Q272.43-0.6 270.3-0.03 268.18 0.55 265.52 0.55ZM297.02-1.15L299.42-1.45 299.72-17.3Q299.72-20.25 299-21.6 298.27-22.95 296.1-22.95 293.92-22.95 291.82-20.33 289.72-17.7 289.57-15.6L289.57-15.6 289.57-1.45 293.32-1.15 293.32 0 279.92 0 279.92-1.15 283.22-1.45 283.22-22.75 279.12-22.95 279.12-24 289.37-24.6 289.12-19.5 289.62-19.5Q292.47-24.75 298.02-24.75L298.02-24.75Q304.67-24.75 305.77-19.5L305.77-19.5Q307.12-22 309.37-23.38 311.62-24.75 314.27-24.75L314.27-24.75Q322.27-24.75 322.27-17.05L322.27-17.05Q322.27-14.85 321.92-1.45L321.92-1.45 325.37-1.15 325.37 0 313.27 0 313.27-1.15 315.67-1.45 315.97-17.3Q315.97-20.25 315.22-21.6 314.47-22.95 312.45-22.95 310.42-22.95 308.62-21.05 306.82-19.15 306.02-16.95L306.02-16.95Q306.02-14.75 305.67-1.45L305.67-1.45 309.12-1.15 309.12 0 297.02 0 297.02-1.15ZM340.82-1.15L340.82 0 327.92 0 327.92-1.15 331.17-1.45 331.17-22.75 326.87-23 326.87-24.05 337.57-24.7 337.57-1.45 340.82-1.15ZM337.92-33.13Q337.92-31.6 336.85-30.5 335.77-29.4 334.17-29.4 332.57-29.4 331.5-30.48 330.42-31.55 330.42-33.13 330.42-34.7 331.52-35.83 332.62-36.95 334.17-36.95 335.72-36.95 336.82-35.8 337.92-34.65 337.92-33.13ZM352.97-0.7L352.97-0.7Q354.72-0.7 355.87-1.83 357.02-2.95 357.02-5.5L357.02-5.5Q357.02-7.55 355.32-8.6L355.32-8.6Q354.02-9.4 351.99-10.18 349.97-10.95 348.89-11.5 347.82-12.05 346.52-12.95L346.52-12.95Q343.97-14.75 343.97-17.85 343.97-20.95 346.54-22.95 349.12-24.95 354.07-24.95L354.07-24.95Q357.17-24.95 359.32-23.63 361.47-22.3 361.47-20.3 361.47-18.3 359.77-17.4L359.77-17.4Q358.97-17 358.17-17L358.17-17 356.37-17.55Q356.67-19.1 356.67-20.38 356.67-21.65 355.87-22.68 355.07-23.7 353.47-23.7L353.47-23.7Q349.57-23.7 349.57-19L349.57-19Q349.57-16.85 351.22-15.8L351.22-15.8Q352.47-14.95 354.42-14.28 356.37-13.6 357.49-13.1 358.62-12.6 359.92-11.7L359.92-11.7Q362.52-10 362.52-6.68 362.52-3.35 359.77-1.4 357.02 0.55 352.52 0.55L352.52 0.55Q347.52 0.55 345.12-1.1L345.12-1.1Q343.72-2.1 343.72-3.55 343.72-5 344.69-5.9 345.67-6.8 347.42-6.85L347.42-6.85Q347.77-0.7 352.97-0.7ZM375.02 0.55L375.02 0.55Q370.22 0.55 368.92-2.8L368.92-2.8Q368.37-4.25 368.37-6.45L368.37-6.45Q368.37-14.75 368.62-23.1L368.62-23.1 365.22-23.1 365.22-24.4 368.67-24.4 368.72-31.75 375.12-31.75 374.97-24.4 381.97-24.4 381.97-23.1 374.97-23.1 374.87-19.05Q374.72-10.95 374.72-4.2L374.72-4.2Q374.72-2.25 375.14-1.55 375.57-0.85 376.69-0.85 377.82-0.85 379.19-2.43 380.57-4 381.17-6.2L381.17-6.2Q382.17-6.2 382.17-5.5L382.17-5.5Q382.17-5.35 382.12-5.15L382.12-5.15Q381.32-2.55 379.39-1 377.47 0.55 375.02 0.55Z" opacity="1" transform="matrix(1,0,0,1,0,0)" fill="#ffffff" class="wordmark-text-0" data-fill-palette-color="quaternary" id="text-0"></path></svg></g></svg></g></svg></g></svg></g><g transform="matrix(1,0,0,1,96.42305992513828,0)"><svg viewBox="0 0 20.3123213768806 30.193991235903596" height="30.193991235903596" width="20.3123213768806"><g><svg xmlns="http://www.w3.org/2000/svg" viewBox="15 6 37 55" x="0" y="0" height="30.193991235903596" width="20.3123213768806" class="icon-icon-0" data-fill-palette-color="quaternary" id="icon-0"><g fill="#ffffff" data-fill-palette-color="quaternary"><polygon points="38.477 48.65 37 48.281 37 51.235 38.477 48.65" fill="#ffffff" data-fill-palette-color="quaternary"></polygon><path d="M32 39A12.013 12.013 0 0 0 44 27V23.414l-2 2V28a1 1 0 0 1-1 1H34a1 1 0 0 1-1-1V26H31v2a1 1 0 0 1-1 1H23a1 1 0 0 1-1-1V25.414l-2-2V27A12.013 12.013 0 0 0 32 39Zm-1-4h2a1 1 0 0 1 0 2H31a1 1 0 0 1 0-2Z" fill="#ffffff" data-fill-palette-color="quaternary"></path><polygon points="37 41.63 37 44.586 38.55 43.036 37 41.63" fill="#ffffff" data-fill-palette-color="quaternary"></polygon><path d="M29 27V23H24v4Zm-2-3a1 1 0 1 1-1 1A1 1 0 0 1 27 24Z" fill="#ffffff" data-fill-palette-color="quaternary"></path><path d="M22 22a1 1 0 0 1 1-1h7a1 1 0 0 1 1 1v2h2V22a1 1 0 0 1 1-1h7a1 1 0 0 1 1 1v0.586l2-2V20H40A6.98 6.98 0 0 1 35 17.9V19a1 1 0 0 1-1 1H33a7 7 0 0 1-6-3.4 6.885 6.885 0 0 1-0.784 1.063A7.01 7.01 0 0 1 21 20H20v0.586l2 2Z" fill="#ffffff" data-fill-palette-color="quaternary"></path><path d="M24.727 16.333A4.99 4.99 0 0 0 26 13a1 1 0 0 1 2 0 5.006 5.006 0 0 0 5 5V13a1 1 0 0 1 2 0 5.006 5.006 0 0 0 5 5h4a12 12 0 0 0-24 0h1A5.006 5.006 0 0 0 24.727 16.333Z" fill="#ffffff" data-fill-palette-color="quaternary"></path><path d="M18 26V22a2 2 0 0 0 0 4Z" fill="#ffffff" data-fill-palette-color="quaternary"></path><path d="M40 27V23H35v4Zm-3-3a1 1 0 1 1-1 1A1 1 0 0 1 37 24Z" fill="#ffffff" data-fill-palette-color="quaternary"></path><path d="M39.073 39.061q-0.594 0.349-1.222 0.641l2.821 2.557a1 1 0 0 1 0.035 1.448l-2.751 2.751 2.287 0.572a1 1 0 0 1 0.625 1.466L37 55.265V61h6V60a1 1 0 0 1 0.293-0.707A6.715 6.715 0 0 0 45 55a6.608 6.608 0 0 0-1.707-4.293A1 1 0 0 1 43 50V48h2v1.621a8.233 8.233 0 0 1 0 10.758V61h4V50A11.031 11.031 0 0 0 39.073 39.061Z" fill="#ffffff" data-fill-palette-color="quaternary"></path><path d="M29 40.668v1.253l3 3.534 3-3.534V40.668a13.72 13.72 0 0 1-6 0Z" fill="#ffffff" data-fill-palette-color="quaternary"></path><polygon points="33 61 35 61 35 45.011 33 47.367 33 61" fill="#ffffff" data-fill-palette-color="quaternary"></polygon><path d="M42.85 9.168A13.927 13.927 0 0 1 46 18v2a4 4 0 0 1 0 8h-0.051A13.891 13.891 0 0 1 44.9 32.433 11.011 11.011 0 0 0 52 35.955V20A11.009 11.009 0 0 0 42.85 9.168Z" fill="#ffffff" data-fill-palette-color="quaternary"></path><path d="M46 22v4a2 2 0 0 0 0-4Z" fill="#ffffff" data-fill-palette-color="quaternary"></path><polygon points="29 61 31 61 31 47.367 29 45.011 29 61" fill="#ffffff" data-fill-palette-color="quaternary"></polygon><path d="M23.08 47.607a1 1 0 0 1 0.677-0.577l2.287-0.572-2.751-2.751a1 1 0 0 1 0.035-1.448L26.149 39.7q-0.629-0.291-1.222-0.641A11.031 11.031 0 0 0 15 50V61h4v-0.621a8.233 8.233 0 0 1 0-10.758V48h2v2a1 1 0 0 1-0.293 0.707A6.715 6.715 0 0 0 19 55a6.608 6.608 0 0 0 1.707 4.293A1 1 0 0 1 21 60v1h6V55.265L23.132 48.5A1 1 0 0 1 23.08 47.607Z" fill="#ffffff" data-fill-palette-color="quaternary"></path><polygon points="27 44.586 27 41.63 25.45 43.036 27 44.586" fill="#ffffff" data-fill-palette-color="quaternary"></polygon><polygon points="27 51.235 27 48.281 25.523 48.65 27 51.235" fill="#ffffff" data-fill-palette-color="quaternary"></polygon></g></svg></g></svg></g><g></g></svg></g></svg></g></svg></g></svg></g><defs></defs></svg><rect width="342.85155851775386" height="342.85155851775386" fill="none" stroke="none" visibility="hidden"></rect></g></svg></g></svg>